# xmcd CD database file
#
# Track frame offsets:
#	150
#	23921
#	60565
#	80941
#	101500
#	121111
#	161195
#	190784
#	210356
#	240384
#	262200
#	275499
#	294290
#
# Disc length: 4260 seconds
#
# Revision: 0
# Processed by: cddbd v1.4PL0 Copyright (c) Steve Scherf et al.
# Submitted via: CDex 1.50Beta7
#
DISCID=b610a20d
DTITLE=Lee Konitz - Motion Disc 3
DYEAR=1961
DGENRE=Jazz
TTITLE0=(Back Home Again In) Indiana [#]
TTITLE1=Alone Together [#]
TTITLE2=Embraceable You [#]
TTITLE3=I'm Getting Sentimental over You [#]
TTITLE4=I'm Getting Sentimental over You [#]
TTITLE5=Pennies from Heaven [#]
TTITLE6=I'll Remember April [#]
TTITLE7=There Will Never Be Another You [#]
TTITLE8=What's New? [#]
TTITLE9=Everything Happens to Me [#]
TTITLE10=Sweet and Lovely [#]
TTITLE11=You'd Be So Nice to Come Home To [#]
TTITLE12=Lullaby of the Leaves [#]
EXTD=YEAR: 1961
EXTT0=
EXTT1=
EXTT2=
EXTT3=
EXTT4=
EXTT5=
EXTT6=
EXTT7=
EXTT8=
EXTT9=
EXTT10=
EXTT11=
EXTT12=
PLAYORDER=
